<svg xmlns="http://www.w3.org/2000/svg" xmlns:xlink="http://www.w3.org/1999/xlink" width="40" zoomAndPan="magnify" viewBox="0 0 30 40.499999" height="54" preserveAspectRatio="xMidYMid meet" version="1.0"><defs><clipPath id="60abb13e56"><path d="M 23 1 L 29.816406 1 L 29.816406 7 L 23 7 Z M 23 1 " clip-rule="nonzero"/></clipPath><clipPath id="ab18cca990"><path d="M 2 0 L 29.816406 0 L 29.816406 26 L 2 26 Z M 2 0 " clip-rule="nonzero"/></clipPath><clipPath id="f4d8b8a555"><path d="M 0.183594 19 L 29.816406 19 L 29.816406 39.875 L 0.183594 39.875 Z M 0.183594 19 " clip-rule="nonzero"/></clipPath><clipPath id="e84bbbf3e4"><path d="M 0.183594 3 L 18 3 L 18 13 L 0.183594 13 Z M 0.183594 3 " clip-rule="nonzero"/></clipPath></defs><g clip-path="url(#60abb13e56)"><path fill="#0ea1bc" d="M 28.691406 5.785156 L 23.996094 1.027344 L 23.996094 6.113281 L 29.015625 6.113281 L 28.691406 5.785156 " fill-opacity="1" fill-rule="nonzero"/></g><path fill="#0ea1bc" d="M 4.800781 6.773438 C 4.800781 6.40625 4.5 6.113281 4.136719 6.113281 L 3.472656 6.113281 L 3.472656 7.433594 L 4.136719 7.433594 C 4.5 7.433594 4.800781 7.140625 4.800781 6.773438 " fill-opacity="1" fill-rule="nonzero"/><g clip-path="url(#ab18cca990)"><path fill="#0ea1bc" d="M 19.363281 16.703125 L 5.460938 16.703125 L 5.460938 15.378906 L 19.363281 15.378906 Z M 20.6875 15.378906 L 26.644531 15.378906 L 26.644531 16.703125 L 20.6875 16.703125 Z M 23.335938 18.6875 L 23.335938 19.351562 L 8.769531 19.351562 L 8.769531 18.027344 L 23.335938 18.027344 Z M 20.027344 22 L 12.078125 22 L 12.078125 20.675781 L 20.027344 20.675781 Z M 18.699219 13.394531 L 2.148438 13.394531 L 2.148438 17.003906 L 2.71875 17.367188 L 3.761719 18.027344 L 4.800781 18.6875 L 15.035156 25.203125 L 16.050781 25.851562 L 17.070312 25.203125 L 27.304688 18.6875 L 29.382812 17.367188 L 29.957031 17.003906 L 29.957031 7.433594 L 22.671875 7.433594 L 22.671875 0.15625 L 2.148438 0.15625 L 2.148438 2.140625 L 18.699219 2.140625 L 18.699219 13.394531 " fill-opacity="1" fill-rule="nonzero"/></g><g clip-path="url(#f4d8b8a555)"><path fill="#0ea1bc" d="M 19.363281 38.550781 C 18.039062 38.550781 19.363281 38.550781 18.039062 38.550781 L 18.039062 37.226562 L 19.363281 37.226562 Z M 16.714844 38.550781 C 15.390625 38.550781 16.714844 38.550781 15.390625 38.550781 L 15.390625 37.226562 L 16.714844 37.226562 Z M 14.066406 38.550781 C 12.742188 38.550781 14.066406 38.550781 12.742188 38.550781 L 12.742188 37.226562 L 14.066406 37.226562 Z M 21.210938 28.019531 L 33.523438 36.386719 L 32.777344 37.484375 L 20.011719 28.804688 L 16.050781 31.398438 L 12.09375 28.804688 L -0.675781 37.484375 L -1.417969 36.386719 L 10.894531 28.019531 L -2.484375 19.253906 L -2.484375 38.550781 C -2.484375 39.28125 -1.890625 39.875 -1.160156 39.875 L 33.265625 39.875 C 33.996094 39.875 34.589844 39.28125 34.589844 38.550781 L 34.589844 19.253906 L 21.210938 28.019531 " fill-opacity="1" fill-rule="nonzero"/></g><g clip-path="url(#e84bbbf3e4)"><path fill="#0ea1bc" d="M 2.148438 8.757812 L 2.148438 4.789062 L 4.136719 4.789062 C 5.234375 4.789062 6.121094 5.679688 6.121094 6.773438 C 6.121094 7.867188 5.234375 8.757812 4.136719 8.757812 L 3.472656 8.757812 L 3.472656 10.746094 L 2.148438 10.746094 Z M 7.445312 4.789062 L 9.433594 4.789062 C 10.527344 4.789062 11.417969 5.679688 11.417969 6.773438 L 11.417969 8.757812 C 11.417969 9.855469 10.527344 10.746094 9.433594 10.746094 L 7.445312 10.746094 Z M 12.742188 8.757812 L 12.742188 6.773438 C 12.742188 5.679688 13.632812 4.789062 14.730469 4.789062 L 16.050781 4.789062 L 16.050781 6.113281 L 14.730469 6.113281 C 14.363281 6.113281 14.066406 6.40625 14.066406 6.773438 L 14.066406 7.433594 L 16.050781 7.433594 L 16.050781 8.757812 L 14.066406 8.757812 L 14.066406 10.746094 L 12.742188 10.746094 Z M 2.148438 12.070312 L 17.375 12.070312 L 17.375 3.460938 L 0.824219 3.460938 L 0.824219 12.070312 L 2.148438 12.070312 " fill-opacity="1" fill-rule="nonzero"/></g><path fill="#0ea1bc" d="M 10.09375 8.757812 L 10.09375 6.773438 C 10.09375 6.40625 9.796875 6.113281 9.433594 6.113281 L 8.769531 6.113281 L 8.769531 9.421875 L 9.433594 9.421875 C 9.796875 9.421875 10.09375 9.125 10.09375 8.757812 " fill-opacity="1" fill-rule="nonzero"/></svg>