<svg xmlns="http://www.w3.org/2000/svg" xmlns:xlink="http://www.w3.org/1999/xlink" width="40" zoomAndPan="magnify" viewBox="0 0 30 40.499999" height="54" preserveAspectRatio="xMidYMid meet" version="1.0"><defs><clipPath id="7486e628af"><path d="M 0.183594 2.964844 L 29.816406 2.964844 L 29.816406 32.597656 L 0.183594 32.597656 Z M 0.183594 2.964844 " clip-rule="nonzero"/></clipPath></defs><g clip-path="url(#7486e628af)"><path fill="#0ea2bd" d="M 1.894531 2.964844 C 0.949219 2.964844 0.183594 3.730469 0.183594 4.671875 L 0.183594 30.886719 C 0.183594 31.828125 0.949219 32.597656 1.894531 32.597656 L 28.105469 32.597656 C 29.050781 32.597656 29.816406 31.828125 29.816406 30.886719 L 29.816406 4.671875 C 29.816406 3.730469 29.050781 2.964844 28.105469 2.964844 Z M 1.894531 4.101562 L 28.105469 4.101562 C 28.421875 4.101562 28.675781 4.359375 28.675781 4.671875 L 28.675781 30.886719 C 28.675781 31.203125 28.421875 31.457031 28.105469 31.457031 L 1.894531 31.457031 C 1.578125 31.457031 1.324219 31.203125 1.324219 30.886719 L 1.324219 4.671875 C 1.324219 4.359375 1.578125 4.101562 1.894531 4.101562 Z M 4.742188 6.953125 C 4.597656 6.953125 4.449219 7.007812 4.339844 7.121094 C 4.117188 7.34375 4.117188 7.703125 4.339844 7.925781 L 9.636719 13.222656 L 5.3125 13.222656 C 4.996094 13.222656 4.742188 13.476562 4.742188 13.792969 C 4.742188 14.105469 4.996094 14.359375 5.3125 14.359375 L 11.011719 14.359375 C 11.328125 14.359375 11.582031 14.105469 11.582031 13.792969 L 11.582031 8.09375 C 11.582031 7.777344 11.328125 7.523438 11.011719 7.523438 C 10.695312 7.523438 10.441406 7.777344 10.441406 8.09375 L 10.441406 12.414062 L 5.144531 7.121094 C 5.035156 7.007812 4.886719 6.953125 4.742188 6.953125 Z M 25.257812 6.953125 C 25.113281 6.953125 24.964844 7.007812 24.855469 7.121094 L 19.558594 12.414062 L 19.558594 8.09375 C 19.558594 7.777344 19.304688 7.523438 18.988281 7.523438 C 18.671875 7.523438 18.417969 7.777344 18.417969 8.09375 L 18.417969 13.792969 C 18.417969 14.105469 18.671875 14.359375 18.988281 14.359375 L 24.6875 14.359375 C 25.003906 14.359375 25.257812 14.105469 25.257812 13.792969 C 25.257812 13.476562 25.003906 13.222656 24.6875 13.222656 L 20.363281 13.222656 L 25.660156 7.925781 C 25.882812 7.703125 25.882812 7.34375 25.660156 7.121094 C 25.550781 7.007812 25.402344 6.953125 25.257812 6.953125 Z M 15 15.5 C 14.371094 15.5 13.859375 16.011719 13.859375 16.640625 C 13.859375 17.269531 14.371094 17.78125 15 17.78125 C 15.628906 17.78125 16.140625 17.269531 16.140625 16.640625 C 16.140625 16.011719 15.628906 15.5 15 15.5 Z M 5.3125 18.921875 C 4.996094 18.921875 4.742188 19.175781 4.742188 19.488281 C 4.742188 19.804688 4.996094 20.058594 5.3125 20.058594 L 9.636719 20.058594 L 4.339844 25.355469 C 4.117188 25.578125 4.117188 25.9375 4.339844 26.160156 C 4.449219 26.273438 4.59375 26.328125 4.742188 26.328125 C 4.890625 26.328125 5.035156 26.273438 5.144531 26.160156 L 10.441406 20.867188 L 10.441406 25.1875 C 10.441406 25.503906 10.695312 25.757812 11.011719 25.757812 C 11.328125 25.757812 11.582031 25.503906 11.582031 25.1875 L 11.582031 19.488281 C 11.582031 19.175781 11.328125 18.921875 11.011719 18.921875 Z M 18.988281 18.921875 C 18.671875 18.921875 18.417969 19.175781 18.417969 19.488281 L 18.417969 25.1875 C 18.417969 25.503906 18.671875 25.757812 18.988281 25.757812 C 19.304688 25.757812 19.558594 25.503906 19.558594 25.1875 L 19.558594 20.867188 L 24.855469 26.160156 C 24.964844 26.273438 25.109375 26.328125 25.257812 26.328125 C 25.40625 26.328125 25.550781 26.273438 25.660156 26.160156 C 25.882812 25.9375 25.882812 25.578125 25.660156 25.355469 L 20.363281 20.058594 L 24.6875 20.058594 C 25.003906 20.058594 25.257812 19.804688 25.257812 19.488281 C 25.257812 19.175781 25.003906 18.921875 24.6875 18.921875 Z M 3.601562 28.039062 C 3.285156 28.039062 3.03125 28.292969 3.03125 28.609375 L 3.03125 29.75 C 3.03125 30.0625 3.285156 30.316406 3.601562 30.316406 C 3.917969 30.316406 4.171875 30.0625 4.171875 29.75 L 4.171875 28.609375 C 4.171875 28.292969 3.917969 28.039062 3.601562 28.039062 Z M 6.453125 28.039062 C 6.136719 28.039062 5.882812 28.292969 5.882812 28.609375 L 5.882812 29.75 C 5.882812 30.0625 6.136719 30.316406 6.453125 30.316406 C 6.769531 30.316406 7.023438 30.0625 7.023438 29.75 L 7.023438 28.609375 C 7.023438 28.292969 6.769531 28.039062 6.453125 28.039062 Z M 9.300781 28.039062 C 8.984375 28.039062 8.730469 28.292969 8.730469 28.609375 L 8.730469 29.75 C 8.730469 30.0625 8.984375 30.316406 9.300781 30.316406 C 9.617188 30.316406 9.871094 30.0625 9.871094 29.75 L 9.871094 28.609375 C 9.871094 28.292969 9.617188 28.039062 9.300781 28.039062 Z M 12.152344 28.039062 C 11.835938 28.039062 11.582031 28.292969 11.582031 28.609375 L 11.582031 29.75 C 11.582031 30.0625 11.835938 30.316406 12.152344 30.316406 C 12.464844 30.316406 12.71875 30.0625 12.71875 29.75 L 12.71875 28.609375 C 12.71875 28.292969 12.464844 28.039062 12.152344 28.039062 Z M 15 28.039062 C 14.683594 28.039062 14.429688 28.292969 14.429688 28.609375 L 14.429688 29.75 C 14.429688 30.0625 14.683594 30.316406 15 30.316406 C 15.316406 30.316406 15.570312 30.0625 15.570312 29.75 L 15.570312 28.609375 C 15.570312 28.292969 15.316406 28.039062 15 28.039062 Z M 17.847656 28.039062 C 17.535156 28.039062 17.28125 28.292969 17.28125 28.609375 L 17.28125 29.75 C 17.28125 30.0625 17.535156 30.316406 17.847656 30.316406 C 18.164062 30.316406 18.417969 30.0625 18.417969 29.75 L 18.417969 28.609375 C 18.417969 28.292969 18.164062 28.039062 17.847656 28.039062 Z M 20.699219 28.039062 C 20.382812 28.039062 20.128906 28.292969 20.128906 28.609375 L 20.128906 29.75 C 20.128906 30.0625 20.382812 30.316406 20.699219 30.316406 C 21.015625 30.316406 21.269531 30.0625 21.269531 29.75 L 21.269531 28.609375 C 21.269531 28.292969 21.015625 28.039062 20.699219 28.039062 Z M 23.546875 28.039062 C 23.230469 28.039062 22.976562 28.292969 22.976562 28.609375 L 22.976562 29.75 C 22.976562 30.0625 23.230469 30.316406 23.546875 30.316406 C 23.863281 30.316406 24.117188 30.0625 24.117188 29.75 L 24.117188 28.609375 C 24.117188 28.292969 23.863281 28.039062 23.546875 28.039062 Z M 26.398438 28.039062 C 26.082031 28.039062 25.828125 28.292969 25.828125 28.609375 L 25.828125 29.75 C 25.828125 30.0625 26.082031 30.316406 26.398438 30.316406 C 26.714844 30.316406 26.96875 30.0625 26.96875 29.75 L 26.96875 28.609375 C 26.96875 28.292969 26.714844 28.039062 26.398438 28.039062 Z M 26.398438 28.039062 " fill-opacity="1" fill-rule="nonzero"/></g></svg>