<svg xmlns="http://www.w3.org/2000/svg" xmlns:xlink="http://www.w3.org/1999/xlink" width="40" zoomAndPan="magnify" viewBox="0 0 30 40.499999" height="54" preserveAspectRatio="xMidYMid meet" version="1.0"><defs><clipPath id="c388453b94"><path d="M 0.183594 0 L 5 0 L 5 6 L 0.183594 6 Z M 0.183594 0 " clip-rule="nonzero"/></clipPath><clipPath id="e071232c91"><path d="M 0.183594 0 L 17 0 L 17 20 L 0.183594 20 Z M 0.183594 0 " clip-rule="nonzero"/></clipPath><clipPath id="fef6f95d89"><path d="M 3 10 L 19.445312 10 L 19.445312 18 L 3 18 Z M 3 10 " clip-rule="nonzero"/></clipPath><clipPath id="3595bcf7e3"><path d="M 16.175781 23.648438 L 29.511719 23.648438 L 29.511719 39.945312 L 16.175781 39.945312 Z M 16.175781 23.648438 " clip-rule="nonzero"/></clipPath><clipPath id="b1cdf073ff"><path d="M 4.640625 21.039062 L 15 21.039062 L 15 35.855469 L 4.640625 35.855469 Z M 4.640625 21.039062 " clip-rule="nonzero"/></clipPath></defs><g clip-path="url(#c388453b94)"><path fill="#0ea2bd" d="M 4.816406 0.117188 L 0.84375 5.410156 L 4.816406 5.410156 Z M 4.816406 0.117188 " fill-opacity="1" fill-rule="nonzero"/></g><g clip-path="url(#e071232c91)"><path fill="#0ea2bd" d="M 2.832031 16.082031 L 2.832031 11.285156 C 2.832031 10.234375 3.683594 9.382812 4.734375 9.382812 L 16.066406 9.382812 L 16.066406 0.527344 C 16.066406 0.300781 15.714844 0.117188 15.488281 0.117188 L 5.476562 0.117188 L 5.476562 5.492188 C 5.476562 5.722656 5.128906 6.070312 4.898438 6.070312 L 0.84375 6.070312 L 0.84375 19.554688 C 0.84375 19.785156 1.195312 19.96875 1.425781 19.96875 L 16.066406 19.96875 L 16.066406 17.984375 L 4.734375 17.984375 C 3.683594 17.984375 2.832031 17.132812 2.832031 16.082031 Z M 2.832031 16.082031 " fill-opacity="1" fill-rule="nonzero"/></g><g clip-path="url(#fef6f95d89)"><path fill="#0ea2bd" d="M 18.132812 10.042969 L 4.742188 10.042969 C 4.058594 10.042969 3.503906 10.597656 3.503906 11.285156 L 3.503906 16.082031 C 3.503906 16.765625 4.058594 17.324219 4.742188 17.324219 L 18.132812 17.324219 C 18.820312 17.324219 19.375 16.765625 19.375 16.082031 L 19.375 11.285156 C 19.375 10.597656 18.820312 10.042969 18.132812 10.042969 Z M 7.710938 15.457031 L 7.269531 15.457031 L 7.269531 13.976562 L 5.515625 13.976562 L 5.515625 15.457031 L 5.074219 15.457031 L 5.074219 12.203125 L 5.515625 12.203125 L 5.515625 13.652344 L 7.269531 13.652344 L 7.269531 12.203125 L 7.710938 12.203125 Z M 10.726562 12.570312 L 9.675781 12.570312 L 9.675781 15.457031 L 9.234375 15.457031 L 9.234375 12.570312 L 8.175781 12.570312 L 8.175781 12.199219 L 10.726562 12.199219 Z M 14.578125 15.457031 L 14.191406 15.457031 L 14.191406 13.066406 C 14.191406 13.03125 14.191406 13 14.195312 12.964844 C 14.195312 12.925781 14.199219 12.890625 14.199219 12.851562 L 13.085938 14.886719 C 13.046875 14.957031 12.992188 14.988281 12.925781 14.988281 L 12.863281 14.988281 C 12.792969 14.988281 12.738281 14.957031 12.703125 14.886719 L 11.5625 12.84375 C 11.566406 12.886719 11.570312 12.921875 11.574219 12.960938 C 11.574219 13 11.574219 13.03125 11.574219 13.066406 L 11.574219 15.457031 L 11.191406 15.457031 L 11.191406 12.203125 L 11.515625 12.203125 C 11.554688 12.203125 11.582031 12.207031 11.605469 12.214844 C 11.625 12.222656 11.648438 12.242188 11.667969 12.277344 L 12.792969 14.28125 C 12.8125 14.316406 12.832031 14.355469 12.847656 14.398438 C 12.863281 14.4375 12.878906 14.476562 12.894531 14.519531 C 12.910156 14.476562 12.925781 14.4375 12.941406 14.398438 C 12.957031 14.359375 12.976562 14.320312 12.996094 14.277344 L 14.101562 12.277344 C 14.121094 12.242188 14.140625 12.222656 14.164062 12.214844 C 14.183594 12.207031 14.210938 12.203125 14.253906 12.203125 L 14.578125 12.203125 Z M 17.222656 15.457031 L 15.371094 15.457031 L 15.371094 12.203125 L 15.8125 12.203125 L 15.8125 15.085938 L 17.222656 15.085938 Z M 17.222656 15.457031 " fill-opacity="1" fill-rule="nonzero"/></g><g clip-path="url(#3595bcf7e3)"><path fill="#0ea2bd" d="M 25.609375 24.160156 C 25.214844 23.761719 24.933594 23.648438 24.375 23.648438 L 17.269531 23.648438 C 16.488281 23.648438 16.179688 23.953125 16.179688 24.734375 L 16.179688 38.914062 C 16.179688 39.695312 16.488281 40.003906 17.269531 40.003906 L 28.722656 40.003906 C 29.503906 40.003906 29.8125 39.695312 29.8125 38.914062 L 29.8125 29.085938 C 29.8125 28.523438 29.695312 28.242188 29.296875 27.847656 Z M 28.859375 38.761719 C 28.859375 38.96875 28.777344 39.050781 28.570312 39.050781 L 17.421875 39.050781 C 17.214844 39.050781 17.132812 38.96875 17.132812 38.761719 L 17.132812 35.246094 L 28.859375 35.246094 Z M 20.695312 33.820312 C 20.910156 33.820312 21.152344 33.773438 21.292969 33.71875 L 21.402344 34.277344 C 21.269531 34.34375 20.972656 34.414062 20.585938 34.414062 C 19.488281 34.414062 18.925781 33.734375 18.925781 32.828125 C 18.925781 31.746094 19.695312 31.144531 20.65625 31.144531 C 21.027344 31.144531 21.3125 31.21875 21.4375 31.285156 L 21.292969 31.855469 C 21.144531 31.792969 20.945312 31.738281 20.691406 31.738281 C 20.121094 31.738281 19.679688 32.082031 19.679688 32.785156 C 19.679688 33.421875 20.054688 33.820312 20.695312 33.820312 Z M 22.660156 33.035156 C 22.132812 32.851562 21.789062 32.558594 21.789062 32.097656 C 21.789062 31.558594 22.242188 31.144531 22.992188 31.144531 C 23.347656 31.144531 23.613281 31.21875 23.800781 31.304688 L 23.640625 31.882812 C 23.511719 31.820312 23.289062 31.730469 22.976562 31.730469 C 22.667969 31.730469 22.515625 31.875 22.515625 32.039062 C 22.515625 32.238281 22.695312 32.328125 23.105469 32.484375 C 23.664062 32.691406 23.929688 32.984375 23.929688 33.429688 C 23.929688 33.964844 23.519531 34.414062 22.648438 34.414062 C 22.285156 34.414062 21.925781 34.320312 21.75 34.222656 L 21.894531 33.628906 C 22.085938 33.726562 22.382812 33.828125 22.691406 33.828125 C 23.019531 33.828125 23.195312 33.691406 23.195312 33.484375 C 23.191406 33.285156 23.042969 33.171875 22.660156 33.035156 Z M 24.144531 31.195312 L 24.929688 31.195312 L 25.316406 32.535156 C 25.425781 32.914062 25.523438 33.277344 25.597656 33.671875 L 25.613281 33.671875 C 25.691406 33.289062 25.789062 32.914062 25.898438 32.550781 L 26.304688 31.195312 L 27.066406 31.195312 L 25.996094 34.367188 L 25.160156 34.367188 Z M 28.859375 30.3125 L 17.132812 30.3125 L 17.132812 24.886719 C 17.132812 24.679688 17.214844 24.597656 17.421875 24.597656 L 24.664062 24.597656 C 24.765625 24.597656 24.808594 24.640625 24.808594 24.742188 L 24.808594 27.5625 C 24.808594 28.34375 25.113281 28.648438 25.894531 28.648438 L 28.714844 28.648438 C 28.820312 28.648438 28.859375 28.691406 28.859375 28.792969 Z M 28.859375 30.3125 " fill-opacity="1" fill-rule="nonzero"/></g><g clip-path="url(#b1cdf073ff)"><path fill="#0ea2bd" d="M 6.195312 30.78125 C 6.195312 30.804688 6.195312 30.820312 6.195312 30.832031 C 6.246094 30.824219 6.238281 30.859375 6.242188 30.890625 C 6.246094 30.902344 6.261719 30.914062 6.269531 30.929688 C 6.277344 30.9375 6.28125 30.945312 6.289062 30.953125 C 6.316406 30.984375 6.339844 31.011719 6.367188 31.042969 C 6.375 31.050781 6.394531 31.050781 6.394531 31.058594 C 6.425781 31.171875 6.507812 31.242188 6.578125 31.324219 C 6.597656 31.34375 6.605469 31.371094 6.621094 31.394531 C 6.640625 31.410156 6.664062 31.421875 6.679688 31.4375 C 6.691406 31.453125 6.699219 31.472656 6.707031 31.488281 C 6.722656 31.507812 6.734375 31.53125 6.753906 31.542969 C 6.777344 31.566406 6.816406 31.578125 6.835938 31.601562 C 6.867188 31.648438 6.917969 31.683594 6.917969 31.75 C 6.917969 31.757812 6.945312 31.769531 6.957031 31.777344 C 6.960938 31.773438 6.964844 31.769531 6.96875 31.765625 C 6.957031 31.753906 6.949219 31.742188 6.9375 31.726562 C 6.949219 31.722656 6.957031 31.714844 6.960938 31.714844 C 7.027344 31.765625 7.039062 31.808594 7.003906 31.867188 C 7.050781 31.898438 7.09375 31.929688 7.140625 31.957031 C 7.15625 31.953125 7.179688 31.945312 7.195312 31.941406 C 7.246094 31.996094 7.300781 32.046875 7.351562 32.097656 C 7.34375 32.101562 7.335938 32.109375 7.316406 32.117188 C 7.339844 32.125 7.359375 32.132812 7.382812 32.140625 C 7.378906 32.144531 7.371094 32.152344 7.359375 32.167969 C 7.390625 32.179688 7.417969 32.191406 7.457031 32.207031 C 7.457031 32.175781 7.453125 32.160156 7.453125 32.144531 C 7.457031 32.140625 7.460938 32.136719 7.464844 32.136719 C 7.484375 32.164062 7.5 32.191406 7.511719 32.214844 C 7.554688 32.226562 7.605469 32.230469 7.644531 32.257812 C 7.683594 32.28125 7.707031 32.328125 7.734375 32.367188 C 7.738281 32.367188 7.746094 32.355469 7.761719 32.339844 C 7.769531 32.367188 7.777344 32.394531 7.785156 32.414062 C 7.808594 32.40625 7.835938 32.398438 7.863281 32.386719 C 7.855469 32.402344 7.847656 32.421875 7.839844 32.433594 C 7.910156 32.5 8.015625 32.484375 8.101562 32.53125 C 8.210938 32.59375 8.339844 32.613281 8.457031 32.652344 C 8.546875 32.683594 8.628906 32.722656 8.71875 32.75 C 8.773438 32.765625 8.832031 32.765625 8.886719 32.78125 C 8.957031 32.800781 9.027344 32.832031 9.097656 32.851562 C 9.152344 32.867188 9.210938 32.871094 9.265625 32.875 C 9.398438 32.894531 9.53125 32.914062 9.664062 32.925781 C 9.726562 32.933594 9.796875 32.929688 9.859375 32.929688 C 9.980469 32.9375 10.097656 32.953125 10.21875 32.953125 C 10.355469 32.953125 10.492188 32.941406 10.628906 32.9375 C 10.78125 32.933594 10.9375 32.9375 11.089844 32.921875 C 11.246094 32.90625 11.398438 32.855469 11.554688 32.847656 C 11.652344 32.839844 11.738281 32.800781 11.828125 32.789062 C 11.882812 32.785156 11.949219 32.796875 11.988281 32.769531 C 12.035156 32.738281 12.078125 32.726562 12.125 32.714844 C 12.199219 32.703125 12.273438 32.679688 12.347656 32.664062 C 12.5 32.632812 12.65625 32.597656 12.808594 32.570312 C 12.867188 32.558594 12.925781 32.558594 12.984375 32.554688 C 12.996094 32.550781 13.007812 32.542969 13.019531 32.539062 C 13 32.527344 12.976562 32.515625 12.960938 32.503906 C 12.925781 32.472656 12.914062 32.40625 12.84375 32.4375 C 12.839844 32.4375 12.824219 32.425781 12.824219 32.421875 C 12.828125 32.320312 12.75 32.363281 12.699219 32.347656 C 12.703125 32.316406 12.707031 32.300781 12.65625 32.289062 C 12.582031 32.261719 12.515625 32.199219 12.445312 32.152344 C 12.421875 32.136719 12.394531 32.125 12.371094 32.105469 C 12.273438 32.023438 12.171875 31.9375 12.074219 31.855469 C 12.035156 31.820312 12.011719 31.777344 11.964844 31.75 C 11.90625 31.714844 11.859375 31.65625 11.820312 31.601562 C 11.796875 31.574219 11.828125 31.515625 11.75 31.519531 C 11.738281 31.523438 11.695312 31.46875 11.667969 31.4375 C 11.628906 31.402344 11.59375 31.355469 11.558594 31.316406 C 11.535156 31.292969 11.519531 31.261719 11.503906 31.234375 C 11.492188 31.214844 11.480469 31.191406 11.464844 31.160156 C 11.46875 31.160156 11.449219 31.164062 11.429688 31.164062 C 11.386719 31.097656 11.347656 31.027344 11.296875 30.949219 C 11.292969 30.949219 11.273438 30.949219 11.261719 30.945312 C 11.265625 30.917969 11.273438 30.894531 11.28125 30.863281 C 11.222656 30.867188 11.1875 30.867188 11.164062 30.796875 C 11.144531 30.734375 11.074219 30.683594 11.0625 30.605469 C 10.921875 30.523438 10.902344 30.351562 10.796875 30.246094 C 10.816406 30.226562 10.824219 30.214844 10.835938 30.203125 C 10.820312 30.195312 10.808594 30.191406 10.792969 30.179688 C 10.78125 30.171875 10.765625 30.160156 10.761719 30.148438 C 10.746094 30.109375 10.734375 30.082031 10.707031 30.050781 C 10.679688 30.023438 10.683594 29.964844 10.671875 29.914062 C 10.644531 29.910156 10.585938 29.914062 10.628906 29.84375 C 10.554688 29.800781 10.527344 29.75 10.546875 29.671875 C 10.480469 29.644531 10.363281 29.3125 10.386719 29.265625 C 10.359375 29.222656 10.335938 29.191406 10.324219 29.15625 C 10.296875 29.078125 10.273438 28.996094 10.25 28.917969 C 10.242188 28.882812 10.234375 28.84375 10.277344 28.835938 C 10.296875 28.832031 10.328125 28.863281 10.339844 28.886719 C 10.363281 28.925781 10.371094 28.96875 10.390625 29.007812 C 10.398438 29.023438 10.417969 29.035156 10.4375 29.046875 C 10.445312 28.976562 10.449219 28.917969 10.457031 28.851562 L 10.550781 28.851562 C 10.542969 28.78125 10.523438 28.707031 10.523438 28.628906 C 10.523438 28.601562 10.558594 28.550781 10.585938 28.542969 C 10.613281 28.535156 10.667969 28.546875 10.660156 28.609375 C 10.660156 28.613281 10.667969 28.621094 10.675781 28.636719 C 10.6875 28.589844 10.695312 28.550781 10.707031 28.5 C 10.742188 28.546875 10.761719 28.574219 10.792969 28.613281 C 10.753906 28.675781 10.824219 28.695312 10.878906 28.730469 C 10.855469 28.746094 10.839844 28.761719 10.808594 28.785156 C 10.851562 28.792969 10.878906 28.796875 10.914062 28.804688 C 10.902344 28.828125 10.890625 28.84375 10.890625 28.851562 C 10.96875 28.953125 11.050781 29.046875 11.125 29.144531 C 11.144531 29.171875 11.148438 29.210938 11.164062 29.25 C 11.171875 29.253906 11.195312 29.269531 11.203125 29.289062 C 11.210938 29.300781 11.191406 29.320312 11.183594 29.347656 C 11.292969 29.371094 11.296875 29.476562 11.332031 29.554688 C 11.359375 29.578125 11.390625 29.597656 11.414062 29.625 C 11.546875 29.792969 11.675781 29.964844 11.804688 30.136719 C 11.84375 30.195312 11.863281 30.265625 11.898438 30.320312 C 11.921875 30.359375 11.964844 30.382812 12 30.414062 C 12.011719 30.429688 12.023438 30.441406 12.035156 30.457031 C 12.085938 30.527344 12.136719 30.605469 12.195312 30.671875 C 12.257812 30.753906 12.328125 30.832031 12.398438 30.90625 C 12.476562 30.988281 12.558594 31.074219 12.640625 31.152344 C 12.738281 31.246094 12.835938 31.34375 12.9375 31.429688 C 13.035156 31.507812 13.144531 31.574219 13.246094 31.648438 C 13.300781 31.6875 13.347656 31.734375 13.402344 31.773438 C 13.457031 31.808594 13.511719 31.84375 13.570312 31.871094 C 13.691406 31.933594 13.816406 31.988281 13.941406 32.042969 C 14.085938 32.105469 14.230469 32.171875 14.382812 32.21875 C 14.5 32.257812 14.632812 32.265625 14.753906 32.296875 C 14.824219 32.316406 14.894531 32.347656 14.957031 32.386719 C 14.980469 32.398438 14.992188 32.453125 14.980469 32.480469 C 14.964844 32.511719 14.941406 32.5625 14.882812 32.542969 C 14.871094 32.539062 14.855469 32.554688 14.84375 32.5625 C 14.90625 32.605469 14.914062 32.644531 14.882812 32.703125 C 14.855469 32.746094 14.816406 32.804688 14.828125 32.847656 C 14.847656 32.914062 14.773438 32.957031 14.804688 33.019531 C 14.785156 33.035156 14.761719 33.046875 14.75 33.066406 C 14.722656 33.117188 14.691406 33.117188 14.640625 33.101562 C 14.597656 33.089844 14.546875 33.109375 14.5 33.121094 C 14.460938 33.128906 14.425781 33.140625 14.386719 33.152344 C 14.300781 33.1875 14.210938 33.222656 14.125 33.261719 C 14.011719 33.3125 13.902344 33.371094 13.789062 33.421875 C 13.726562 33.453125 13.660156 33.472656 13.59375 33.5 C 13.574219 33.511719 13.554688 33.53125 13.519531 33.554688 C 13.433594 33.507812 13.402344 33.617188 13.332031 33.652344 C 13.347656 33.65625 13.363281 33.660156 13.375 33.664062 C 13.375 33.667969 13.375 33.675781 13.371094 33.675781 C 13.292969 33.691406 13.261719 33.769531 13.199219 33.808594 C 13.128906 33.847656 13.066406 33.898438 13.015625 33.957031 C 12.960938 34.015625 12.898438 34.070312 12.851562 34.140625 C 12.789062 34.230469 12.703125 34.300781 12.628906 34.386719 C 12.53125 34.492188 12.441406 34.605469 12.347656 34.714844 C 12.265625 34.8125 12.175781 34.90625 12.105469 35.011719 C 12.054688 35.089844 12.023438 35.183594 11.988281 35.273438 C 11.984375 35.289062 12 35.316406 12.011719 35.355469 C 11.988281 35.363281 11.957031 35.375 11.929688 35.386719 C 11.925781 35.378906 11.921875 35.375 11.917969 35.371094 C 11.910156 35.390625 11.902344 35.410156 11.890625 35.425781 C 11.882812 35.449219 11.867188 35.464844 11.855469 35.484375 C 11.839844 35.46875 11.828125 35.449219 11.8125 35.441406 C 11.796875 35.429688 11.773438 35.425781 11.734375 35.410156 C 11.726562 35.363281 11.703125 35.289062 11.699219 35.214844 C 11.695312 35.109375 11.714844 35 11.773438 34.90625 C 11.863281 34.769531 11.960938 34.644531 12.050781 34.507812 C 12.09375 34.445312 12.117188 34.367188 12.167969 34.316406 C 12.230469 34.253906 12.242188 34.175781 12.273438 34.105469 C 12.289062 34.070312 12.328125 34.042969 12.363281 34.003906 C 12.363281 34.003906 12.355469 33.988281 12.351562 33.972656 C 12.394531 33.9375 12.4375 33.90625 12.484375 33.871094 C 12.421875 33.773438 12.550781 33.800781 12.585938 33.753906 L 12.527344 33.753906 C 12.59375 33.703125 12.652344 33.660156 12.703125 33.621094 C 12.691406 33.601562 12.6875 33.582031 12.671875 33.570312 C 12.660156 33.5625 12.640625 33.554688 12.628906 33.554688 C 12.59375 33.558594 12.5625 33.566406 12.53125 33.574219 C 12.480469 33.585938 12.433594 33.601562 12.386719 33.613281 C 12.289062 33.644531 12.195312 33.675781 12.101562 33.703125 C 12.046875 33.71875 11.988281 33.722656 11.921875 33.734375 C 11.84375 33.699219 11.777344 33.808594 11.683594 33.785156 C 11.691406 33.78125 11.699219 33.777344 11.703125 33.769531 C 11.703125 33.765625 11.703125 33.761719 11.703125 33.753906 C 11.679688 33.761719 11.652344 33.761719 11.628906 33.769531 C 11.585938 33.789062 11.542969 33.808594 11.496094 33.828125 C 11.484375 33.832031 11.464844 33.832031 11.457031 33.824219 C 11.417969 33.773438 11.398438 33.800781 11.378906 33.824219 C 11.355469 33.820312 11.328125 33.8125 11.304688 33.816406 C 11.222656 33.835938 11.140625 33.835938 11.058594 33.84375 C 10.988281 33.851562 10.917969 33.84375 10.851562 33.847656 C 10.835938 33.847656 10.820312 33.859375 10.804688 33.867188 C 10.796875 33.851562 10.785156 33.835938 10.777344 33.820312 C 10.773438 33.820312 10.769531 33.824219 10.765625 33.824219 C 10.769531 33.839844 10.773438 33.851562 10.777344 33.867188 C 10.773438 33.867188 10.769531 33.871094 10.769531 33.871094 C 10.753906 33.855469 10.742188 33.839844 10.726562 33.820312 C 10.714844 33.835938 10.699219 33.851562 10.683594 33.871094 C 10.667969 33.863281 10.652344 33.851562 10.636719 33.851562 C 10.601562 33.851562 10.5625 33.878906 10.53125 33.832031 C 10.464844 33.917969 10.375 33.792969 10.304688 33.855469 C 10.300781 33.859375 10.277344 33.855469 10.273438 33.851562 C 10.242188 33.769531 10.171875 33.824219 10.121094 33.808594 C 10.113281 33.804688 10.097656 33.828125 10.089844 33.820312 C 10.054688 33.8125 10.023438 33.804688 9.988281 33.800781 C 9.9375 33.792969 9.886719 33.785156 9.835938 33.78125 C 9.777344 33.777344 9.71875 33.773438 9.65625 33.773438 C 9.648438 33.773438 9.636719 33.792969 9.621094 33.804688 C 9.609375 33.789062 9.589844 33.773438 9.574219 33.753906 C 9.542969 33.765625 9.480469 33.789062 9.480469 33.785156 C 9.4375 33.699219 9.398438 33.789062 9.351562 33.789062 C 9.335938 33.785156 9.320312 33.765625 9.292969 33.757812 C 9.21875 33.734375 9.113281 33.789062 9.070312 33.679688 C 9.066406 33.675781 9.042969 33.671875 9.03125 33.675781 C 8.960938 33.71875 8.949219 33.71875 8.917969 33.644531 C 8.902344 33.648438 8.882812 33.648438 8.867188 33.652344 C 8.863281 33.65625 8.859375 33.664062 8.859375 33.664062 C 8.824219 33.632812 8.792969 33.605469 8.75 33.566406 C 8.746094 33.59375 8.742188 33.613281 8.730469 33.652344 C 8.710938 33.601562 8.691406 33.574219 8.644531 33.632812 C 8.644531 33.621094 8.640625 33.609375 8.636719 33.597656 C 8.652344 33.578125 8.667969 33.5625 8.6875 33.542969 C 8.667969 33.507812 8.636719 33.515625 8.601562 33.582031 C 8.59375 33.566406 8.589844 33.554688 8.589844 33.558594 C 8.554688 33.554688 8.527344 33.554688 8.496094 33.554688 C 8.5 33.535156 8.503906 33.515625 8.507812 33.488281 C 8.503906 33.484375 8.488281 33.476562 8.46875 33.464844 C 8.464844 33.484375 8.460938 33.5 8.457031 33.511719 C 8.453125 33.511719 8.449219 33.511719 8.449219 33.511719 C 8.445312 33.492188 8.441406 33.476562 8.4375 33.449219 C 8.40625 33.464844 8.375 33.480469 8.34375 33.496094 C 8.339844 33.503906 8.335938 33.511719 8.335938 33.519531 C 8.296875 33.480469 8.257812 33.4375 8.21875 33.394531 C 8.207031 33.40625 8.1875 33.429688 8.164062 33.457031 C 8.136719 33.421875 8.117188 33.394531 8.082031 33.351562 C 8.089844 33.386719 8.09375 33.402344 8.097656 33.425781 C 8.015625 33.394531 7.933594 33.363281 7.847656 33.332031 C 7.867188 33.304688 7.882812 33.285156 7.902344 33.261719 C 7.875 33.25 7.855469 33.242188 7.828125 33.230469 C 7.824219 33.253906 7.824219 33.273438 7.820312 33.292969 C 7.792969 33.285156 7.761719 33.285156 7.734375 33.273438 C 7.664062 33.246094 7.59375 33.21875 7.535156 33.175781 C 7.464844 33.121094 7.371094 33.109375 7.308594 33.054688 C 7.15625 32.917969 6.964844 32.847656 6.808594 32.722656 C 6.777344 32.695312 6.726562 32.691406 6.738281 32.632812 C 6.652344 32.628906 6.578125 32.5625 6.5625 32.503906 C 6.550781 32.488281 6.539062 32.472656 6.523438 32.457031 C 6.5 32.4375 6.472656 32.417969 6.445312 32.398438 C 6.433594 32.390625 6.414062 32.390625 6.402344 32.378906 C 6.289062 32.234375 6.121094 32.140625 6.019531 31.976562 C 5.902344 31.796875 5.761719 31.628906 5.632812 31.453125 C 5.621094 31.4375 5.617188 31.414062 5.609375 31.394531 C 5.601562 31.382812 5.585938 31.375 5.574219 31.363281 C 5.566406 31.355469 5.546875 31.347656 5.546875 31.335938 C 5.535156 31.234375 5.4375 31.179688 5.414062 31.09375 C 5.390625 31.015625 5.316406 30.957031 5.335938 30.859375 C 5.339844 30.824219 5.296875 30.78125 5.28125 30.742188 C 5.25 30.667969 5.210938 30.597656 5.199219 30.523438 C 5.1875 30.453125 5.152344 30.394531 5.132812 30.328125 C 5.113281 30.246094 5.089844 30.167969 5.070312 30.089844 C 5.066406 30.078125 5.078125 30.066406 5.085938 30.035156 C 5.078125 30.027344 5.039062 30.015625 5.03125 29.988281 C 5 29.914062 4.976562 29.832031 4.957031 29.75 C 4.941406 29.703125 4.929688 29.65625 4.921875 29.609375 C 4.914062 29.558594 4.914062 29.507812 4.910156 29.464844 C 4.914062 29.460938 4.90625 29.46875 4.902344 29.480469 C 4.894531 29.480469 4.886719 29.476562 4.886719 29.476562 C 4.917969 29.378906 4.839844 29.300781 4.832031 29.210938 C 4.820312 29.0625 4.796875 28.917969 4.773438 28.769531 C 4.753906 28.625 4.726562 28.476562 4.710938 28.332031 C 4.703125 28.277344 4.714844 28.21875 4.714844 28.160156 C 4.710938 28.125 4.695312 28.089844 4.695312 28.054688 C 4.6875 27.960938 4.691406 27.863281 4.675781 27.769531 C 4.65625 27.660156 4.660156 27.546875 4.660156 27.4375 C 4.660156 27.289062 4.640625 27.136719 4.652344 26.988281 C 4.660156 26.902344 4.652344 26.820312 4.652344 26.734375 C 4.652344 26.554688 4.652344 26.371094 4.652344 26.191406 C 4.652344 26.054688 4.652344 25.921875 4.652344 25.789062 C 4.65625 25.570312 4.660156 25.351562 4.664062 25.132812 C 4.664062 25.082031 4.65625 25.03125 4.667969 24.988281 C 4.675781 24.945312 4.707031 24.90625 4.734375 24.863281 C 4.730469 24.863281 4.710938 24.851562 4.6875 24.839844 C 4.714844 24.824219 4.742188 24.808594 4.78125 24.785156 C 4.695312 24.769531 4.675781 24.730469 4.722656 24.667969 C 4.726562 24.664062 4.71875 24.648438 4.714844 24.640625 C 4.710938 24.628906 4.703125 24.617188 4.707031 24.605469 C 4.710938 24.554688 4.710938 24.503906 4.691406 24.453125 C 4.675781 24.410156 4.679688 24.355469 4.679688 24.304688 C 4.679688 24.160156 4.679688 24.019531 4.679688 23.875 C 4.683594 23.777344 4.691406 23.675781 4.699219 23.578125 C 4.699219 23.566406 4.714844 23.554688 4.726562 23.542969 C 4.757812 23.503906 4.78125 23.46875 4.726562 23.421875 C 4.710938 23.410156 4.710938 23.378906 4.707031 23.355469 C 4.707031 23.316406 4.699219 23.273438 4.710938 23.238281 C 4.738281 23.167969 4.71875 23.097656 4.714844 23.027344 C 4.714844 23.019531 4.710938 23.015625 4.710938 23.011719 C 4.757812 22.902344 4.714844 22.789062 4.730469 22.679688 C 4.75 22.5625 4.746094 22.441406 4.753906 22.324219 C 4.765625 22.179688 4.753906 22.023438 4.804688 21.894531 C 4.863281 21.742188 4.808594 21.582031 4.886719 21.433594 C 4.9375 21.332031 4.933594 21.199219 4.953125 21.082031 C 4.957031 21.074219 4.964844 21.0625 4.96875 21.054688 C 5.011719 21.101562 5.070312 21.140625 5.089844 21.195312 C 5.113281 21.253906 5.105469 21.332031 5.109375 21.398438 C 5.109375 21.425781 5.105469 21.449219 5.09375 21.484375 C 5.082031 21.460938 5.070312 21.4375 5.054688 21.410156 C 5.039062 21.429688 5.027344 21.445312 5.011719 21.46875 C 5.007812 21.457031 5.003906 21.445312 5 21.4375 C 4.996094 21.4375 4.992188 21.4375 4.988281 21.4375 C 4.984375 21.464844 4.984375 21.488281 4.980469 21.519531 C 5.0625 21.519531 5.046875 21.582031 5.039062 21.632812 C 5.046875 21.632812 5.054688 21.632812 5.0625 21.632812 C 5.066406 21.613281 5.070312 21.59375 5.078125 21.566406 C 5.109375 21.640625 5.121094 21.710938 5.089844 21.789062 C 5.082031 21.769531 5.074219 21.75 5.066406 21.730469 C 5.0625 21.730469 5.054688 21.734375 5.046875 21.734375 C 5.027344 21.867188 5.019531 21.996094 5.050781 22.128906 C 5.058594 22.128906 5.066406 22.128906 5.078125 22.128906 L 5.078125 21.796875 C 5.09375 21.804688 5.109375 21.808594 5.109375 21.8125 C 5.109375 21.871094 5.105469 21.929688 5.109375 21.988281 C 5.109375 22.050781 5.121094 22.113281 5.125 22.175781 C 5.136719 22.277344 5.148438 22.378906 5.15625 22.484375 C 5.167969 22.644531 5.179688 22.804688 5.191406 22.964844 C 5.195312 23.066406 5.207031 23.164062 5.210938 23.261719 C 5.230469 23.503906 5.242188 23.75 5.257812 23.992188 C 5.269531 24.175781 5.292969 24.355469 5.296875 24.535156 C 5.300781 24.710938 5.316406 24.882812 5.328125 25.058594 C 5.339844 25.253906 5.328125 25.453125 5.332031 25.652344 C 5.335938 25.765625 5.351562 25.882812 5.359375 26 C 5.363281 26.085938 5.359375 26.175781 5.359375 26.265625 C 5.367188 26.394531 5.378906 26.527344 5.378906 26.660156 C 5.382812 26.742188 5.394531 26.824219 5.382812 26.914062 C 5.371094 26.984375 5.398438 27.058594 5.40625 27.132812 C 5.40625 27.175781 5.394531 27.214844 5.394531 27.257812 C 5.394531 27.292969 5.414062 27.332031 5.417969 27.367188 C 5.425781 27.527344 5.425781 27.691406 5.441406 27.847656 C 5.460938 28.050781 5.492188 28.253906 5.523438 28.453125 C 5.550781 28.636719 5.574219 28.824219 5.613281 29.003906 C 5.652344 29.195312 5.703125 29.386719 5.757812 29.574219 C 5.796875 29.710938 5.839844 29.84375 5.886719 29.980469 C 5.925781 30.101562 5.976562 30.21875 6.019531 30.335938 C 6.058594 30.441406 6.101562 30.542969 6.128906 30.652344 C 6.144531 30.710938 6.160156 30.757812 6.195312 30.777344 Z M 11.222656 30.605469 C 11.238281 30.648438 11.25 30.691406 11.269531 30.746094 C 11.296875 30.730469 11.320312 30.71875 11.34375 30.707031 C 11.328125 30.683594 11.316406 30.660156 11.296875 30.640625 C 11.277344 30.621094 11.253906 30.613281 11.230469 30.597656 C 11.246094 30.589844 11.257812 30.585938 11.273438 30.578125 C 11.238281 30.503906 11.136719 30.4375 11.074219 30.457031 C 11.109375 30.484375 11.136719 30.507812 11.167969 30.535156 C 11.148438 30.542969 11.136719 30.546875 11.125 30.550781 C 11.144531 30.601562 11.167969 30.636719 11.222656 30.605469 Z M 5.195312 25.617188 L 5.21875 25.617188 C 5.222656 25.605469 5.234375 25.59375 5.234375 25.582031 C 5.234375 25.5 5.230469 25.414062 5.222656 25.328125 C 5.222656 25.320312 5.195312 25.316406 5.164062 25.300781 C 5.175781 25.417969 5.183594 25.519531 5.191406 25.617188 Z M 12.886719 32.324219 C 12.917969 32.316406 12.933594 32.3125 12.953125 32.308594 C 12.964844 32.304688 12.980469 32.296875 12.992188 32.289062 C 12.984375 32.28125 12.980469 32.265625 12.96875 32.257812 C 12.910156 32.214844 12.851562 32.171875 12.792969 32.132812 C 12.785156 32.128906 12.777344 32.136719 12.769531 32.136719 C 12.796875 32.195312 12.820312 32.246094 12.84375 32.300781 C 12.867188 32.28125 12.886719 32.269531 12.921875 32.242188 C 12.90625 32.28125 12.898438 32.296875 12.886719 32.324219 Z M 13.070312 32.441406 C 13.089844 32.410156 13.105469 32.378906 13.125 32.347656 C 13.054688 32.300781 12.992188 32.316406 12.9375 32.390625 C 12.964844 32.386719 12.988281 32.386719 13.027344 32.382812 C 13.011719 32.394531 13.007812 32.398438 13 32.398438 C 13 32.402344 12.996094 32.398438 12.996094 32.402344 C 12.992188 32.402344 12.992188 32.40625 12.992188 32.40625 C 13.019531 32.417969 13.046875 32.429688 13.070312 32.441406 Z M 10.539062 29.453125 C 10.613281 29.460938 10.652344 29.460938 10.660156 29.445312 C 10.632812 29.433594 10.605469 29.425781 10.578125 29.417969 C 10.59375 29.375 10.605469 29.339844 10.621094 29.300781 C 10.601562 29.289062 10.582031 29.277344 10.554688 29.261719 C 10.550781 29.332031 10.542969 29.390625 10.539062 29.453125 Z M 13.121094 32.421875 C 13.144531 32.441406 13.164062 32.453125 13.171875 32.472656 C 13.195312 32.511719 13.21875 32.515625 13.246094 32.480469 C 13.261719 32.460938 13.265625 32.4375 13.277344 32.410156 C 13.214844 32.398438 13.152344 32.347656 13.121094 32.421875 Z M 10.601562 29.597656 C 10.632812 29.585938 10.652344 29.578125 10.671875 29.570312 C 10.667969 29.601562 10.664062 29.625 10.660156 29.644531 C 10.691406 29.636719 10.71875 29.628906 10.761719 29.613281 C 10.734375 29.601562 10.722656 29.601562 10.710938 29.597656 C 10.71875 29.585938 10.726562 29.574219 10.726562 29.570312 C 10.6875 29.554688 10.65625 29.542969 10.621094 29.53125 C 10.613281 29.550781 10.609375 29.566406 10.601562 29.597656 Z M 14.199219 33.121094 C 14.269531 33.101562 14.335938 33.082031 14.410156 33.0625 C 14.320312 33.015625 14.269531 33.03125 14.199219 33.121094 Z M 11.375 30.894531 C 11.375 30.902344 11.378906 30.910156 11.378906 30.917969 C 11.410156 30.917969 11.445312 30.929688 11.472656 30.917969 C 11.484375 30.914062 11.484375 30.871094 11.488281 30.84375 C 11.484375 30.84375 11.476562 30.839844 11.46875 30.835938 C 11.4375 30.855469 11.40625 30.875 11.375 30.894531 Z M 12.503906 32.039062 C 12.535156 32.035156 12.5625 32.035156 12.59375 32.03125 C 12.59375 32.023438 12.597656 32.019531 12.601562 32.011719 C 12.574219 31.992188 12.542969 31.972656 12.503906 31.945312 Z M 12.503906 32.039062 " fill-opacity="1" fill-rule="nonzero"/></g></svg>