<svg xmlns="http://www.w3.org/2000/svg" xmlns:xlink="http://www.w3.org/1999/xlink" width="40" zoomAndPan="magnify" viewBox="0 0 30 40.499999" height="54" preserveAspectRatio="xMidYMid meet" version="1.0"><defs><clipPath id="3e8efbdaa1"><path d="M 0.183594 17 L 29.816406 17 L 29.816406 37.785156 L 0.183594 37.785156 Z M 0.183594 17 " clip-rule="nonzero"/></clipPath><clipPath id="298c362cfa"><path d="M 4 28 L 18 28 L 18 37.785156 L 4 37.785156 Z M 4 28 " clip-rule="nonzero"/></clipPath><clipPath id="fb11bcab90"><path d="M 13 26 L 28 26 L 28 37.785156 L 13 37.785156 Z M 13 26 " clip-rule="nonzero"/></clipPath></defs><path fill="#0ea2bd" d="M 7.929688 1.964844 C 6.953125 1.964844 6.164062 2.753906 6.164062 3.730469 L 6.164062 17.671875 L 23.835938 17.671875 L 23.835938 10.480469 C 23.835938 9.503906 23.046875 8.710938 22.070312 8.710938 L 17.453125 8.710938 C 16.914062 8.710938 16.472656 8.273438 16.472656 7.730469 L 16.472656 3.730469 C 16.472656 2.753906 15.679688 1.964844 14.707031 1.964844 Z M 4.199219 3.730469 C 4.199219 1.671875 5.871094 0 7.929688 0 L 14.707031 0 C 16.765625 0 18.4375 1.671875 18.4375 3.730469 L 18.4375 6.746094 L 22.070312 6.746094 C 24.128906 6.746094 25.800781 8.417969 25.800781 10.480469 L 25.800781 18.65625 C 25.800781 19.195312 25.359375 19.636719 24.816406 19.636719 L 5.183594 19.636719 C 4.640625 19.636719 4.199219 19.195312 4.199219 18.65625 Z M 4.199219 3.730469 " fill-opacity="1" fill-rule="evenodd"/><path fill="#0ea2bd" d="M 12.054688 0.980469 C 12.054688 0.441406 12.496094 0 13.035156 0 L 15.316406 0 C 16.078125 0 16.820312 0.234375 17.445312 0.667969 L 24.199219 5.355469 C 25.203125 6.050781 25.800781 7.199219 25.800781 8.417969 L 25.800781 10.800781 C 25.800781 11.34375 25.359375 11.78125 24.816406 11.78125 C 24.277344 11.78125 23.835938 11.34375 23.835938 10.800781 L 23.835938 8.417969 C 23.835938 7.839844 23.554688 7.296875 23.078125 6.96875 L 16.324219 2.28125 C 16.03125 2.074219 15.675781 1.964844 15.316406 1.964844 L 13.035156 1.964844 C 12.496094 1.964844 12.054688 1.523438 12.054688 0.980469 Z M 12.054688 0.980469 " fill-opacity="1" fill-rule="evenodd"/><path fill="#0ea2bd" d="M 8.128906 6.871094 C 8.128906 6.332031 8.566406 5.890625 9.109375 5.890625 L 13.035156 5.890625 C 13.578125 5.890625 14.019531 6.332031 14.019531 6.871094 C 14.019531 7.414062 13.578125 7.855469 13.035156 7.855469 L 9.109375 7.855469 C 8.566406 7.855469 8.128906 7.414062 8.128906 6.871094 Z M 8.128906 6.871094 " fill-opacity="1" fill-rule="evenodd"/><path fill="#0ea2bd" d="M 8.128906 10.800781 C 8.128906 10.257812 8.566406 9.816406 9.109375 9.816406 L 18.925781 9.816406 C 19.46875 9.816406 19.910156 10.257812 19.910156 10.800781 C 19.910156 11.34375 19.46875 11.78125 18.925781 11.78125 L 9.109375 11.78125 C 8.566406 11.78125 8.128906 11.34375 8.128906 10.800781 Z M 8.128906 10.800781 " fill-opacity="1" fill-rule="evenodd"/><path fill="#0ea2bd" d="M 8.128906 14.726562 C 8.128906 14.183594 8.566406 13.746094 9.109375 13.746094 L 18.925781 13.746094 C 19.46875 13.746094 19.910156 14.183594 19.910156 14.726562 C 19.910156 15.269531 19.46875 15.710938 18.925781 15.710938 L 9.109375 15.710938 C 8.566406 15.710938 8.128906 15.269531 8.128906 14.726562 Z M 8.128906 14.726562 " fill-opacity="1" fill-rule="evenodd"/><g clip-path="url(#3e8efbdaa1)"><path fill="#0ea2bd" d="M 0.273438 20.617188 C 0.273438 18.992188 1.589844 17.671875 3.21875 17.671875 L 26.78125 17.671875 C 28.410156 17.671875 29.726562 18.992188 29.726562 20.617188 L 29.726562 34.363281 C 29.726562 35.992188 28.410156 37.308594 26.78125 37.308594 L 3.21875 37.308594 C 1.589844 37.308594 0.273438 35.992188 0.273438 34.363281 Z M 3.21875 19.636719 C 2.675781 19.636719 2.234375 20.074219 2.234375 20.617188 L 2.234375 34.363281 C 2.234375 34.90625 2.675781 35.34375 3.21875 35.34375 L 26.78125 35.34375 C 27.324219 35.34375 27.765625 34.90625 27.765625 34.363281 L 27.765625 20.617188 C 27.765625 20.074219 27.324219 19.636719 26.78125 19.636719 Z M 3.21875 19.636719 " fill-opacity="1" fill-rule="evenodd"/></g><g clip-path="url(#298c362cfa)"><path fill="#0ea2bd" d="M 11.859375 31.15625 C 11.464844 30.632812 10.679688 30.632812 10.289062 31.15625 L 5.96875 36.917969 C 5.640625 37.351562 5.027344 37.4375 4.59375 37.113281 C 4.160156 36.789062 4.070312 36.171875 4.394531 35.738281 L 8.714844 29.976562 C 9.894531 28.40625 12.25 28.40625 13.429688 29.976562 L 17.75 35.738281 C 18.074219 36.171875 17.988281 36.789062 17.554688 37.113281 C 17.117188 37.4375 16.503906 37.351562 16.179688 36.917969 Z M 11.859375 31.15625 " fill-opacity="1" fill-rule="evenodd"/></g><g clip-path="url(#fb11bcab90)"><path fill="#0ea2bd" d="M 19.664062 29 C 19.273438 28.515625 18.539062 28.507812 18.140625 28.984375 L 14.773438 33.027344 C 14.425781 33.445312 13.804688 33.5 13.390625 33.15625 C 12.972656 32.808594 12.917969 32.1875 13.265625 31.773438 L 16.632812 27.726562 C 17.828125 26.296875 20.03125 26.320312 21.195312 27.773438 L 27.546875 35.714844 C 27.886719 36.136719 27.820312 36.753906 27.394531 37.09375 C 26.972656 37.433594 26.355469 37.363281 26.015625 36.941406 Z M 19.664062 29 " fill-opacity="1" fill-rule="evenodd"/></g><path fill="#0ea2bd" d="M 12.054688 23.5625 C 11.511719 23.5625 11.074219 24.003906 11.074219 24.546875 C 11.074219 25.085938 11.511719 25.527344 12.054688 25.527344 C 12.597656 25.527344 13.035156 25.085938 13.035156 24.546875 C 13.035156 24.003906 12.597656 23.5625 12.054688 23.5625 Z M 9.109375 24.546875 C 9.109375 22.917969 10.429688 21.601562 12.054688 21.601562 C 13.679688 21.601562 15 22.917969 15 24.546875 C 15 26.171875 13.679688 27.492188 12.054688 27.492188 C 10.429688 27.492188 9.109375 26.171875 9.109375 24.546875 Z M 9.109375 24.546875 " fill-opacity="1" fill-rule="evenodd"/></svg>